<svg id="SvgjsSvg1001" width="288" height="288" xmlns="http://www.w3.org/2000/svg" version="1.1" xmlns:xlink="http://www.w3.org/1999/xlink" xmlns:svgjs="http://svgjs.com/svgjs"><defs id="SvgjsDefs1002"></defs><g id="SvgjsG1008" transform="matrix(1,0,0,1,0,0)"><svg xmlns="http://www.w3.org/2000/svg" data-name="Layer 1" viewBox="0 0 81.83 122.88" width="288" height="288"><path fill-rule="evenodd" d="M59.88,0,2.9,8.54A3.65,3.65,0,0,0,0,12V112.48c0,1.63,1.29,2.25,2.9,2.48l57,7.9c1.6.22,2.89-1.86,2.89-3.51V2.5A2.43,2.43,0,0,0,59.88,0Zm9,115.44a2.43,2.43,0,1,1,0-4.86H76.5a.5.5,0,0,0,.33-.14.47.47,0,0,0,.13-.33V12.56a.49.49,0,0,0-.13-.33.51.51,0,0,0-.33-.13H68.92a2.44,2.44,0,1,1,0-4.87H76.5a5.36,5.36,0,0,1,5.33,5.33v97.58a5.34,5.34,0,0,1-5.33,5.33ZM55.33,53.9l-4.76-1.36v17.8l4.76-1.72V53.9Z" fill="#104970" class="color000 svgShape"></path></svg></g></svg>